<mxfile host="app.diagrams.net" modified="2022-01-23T10:46:07.904Z" agent="5.0 (Windows)" etag="IU4oYKUKRf2_RsZrdmWH" version="16.4.5" type="github">
  <diagram name="Page-1" id="bd83a815-5ea8-2e97-e5ec-87c9f400f2fa">
    <mxGraphModel dx="992" dy="594" grid="1" gridSize="10" guides="1" tooltips="1" connect="1" arrows="1" fold="1" page="1" pageScale="1.5" pageWidth="1169" pageHeight="826" background="none" math="0" shadow="0">
      <root>
        <mxCell id="0" style=";html=1;" />
        <mxCell id="1" style=";html=1;" parent="0" />
        <mxCell id="E9WGetEpHzfS7NlFxXSG-17" value="" style="shape=table;startSize=0;container=1;collapsible=0;childLayout=tableLayout;fontFamily=微軟正黑體;strokeWidth=1;fontSize=16;" vertex="1" parent="1">
          <mxGeometry x="90" y="630" width="690" height="320" as="geometry" />
        </mxCell>
        <mxCell id="E9WGetEpHzfS7NlFxXSG-18" value="" style="shape=tableRow;horizontal=0;startSize=0;swimlaneHead=0;swimlaneBody=0;top=0;left=0;bottom=0;right=0;collapsible=0;dropTarget=0;fillColor=none;points=[[0,0.5],[1,0.5]];portConstraint=eastwest;fontFamily=微軟正黑體;fontSize=16;" vertex="1" parent="E9WGetEpHzfS7NlFxXSG-17">
          <mxGeometry width="690" height="40" as="geometry" />
        </mxCell>
        <mxCell id="E9WGetEpHzfS7NlFxXSG-19" value="" style="shape=partialRectangle;html=1;whiteSpace=wrap;connectable=0;overflow=hidden;fillColor=none;top=0;left=0;bottom=0;right=0;pointerEvents=1;rowspan=1;colspan=6;fontFamily=微軟正黑體;fontSize=16;" vertex="1" parent="E9WGetEpHzfS7NlFxXSG-18">
          <mxGeometry width="690" height="40" as="geometry">
            <mxRectangle width="115" height="40" as="alternateBounds" />
          </mxGeometry>
        </mxCell>
        <mxCell id="E9WGetEpHzfS7NlFxXSG-20" value="" style="shape=partialRectangle;html=1;whiteSpace=wrap;connectable=0;overflow=hidden;fillColor=none;top=0;left=0;bottom=0;right=0;pointerEvents=1;" vertex="1" visible="0" parent="E9WGetEpHzfS7NlFxXSG-18">
          <mxGeometry x="115" width="115" height="40" as="geometry">
            <mxRectangle width="115" height="40" as="alternateBounds" />
          </mxGeometry>
        </mxCell>
        <mxCell id="E9WGetEpHzfS7NlFxXSG-21" value="" style="shape=partialRectangle;html=1;whiteSpace=wrap;connectable=0;overflow=hidden;fillColor=none;top=0;left=0;bottom=0;right=0;pointerEvents=1;" vertex="1" visible="0" parent="E9WGetEpHzfS7NlFxXSG-18">
          <mxGeometry x="230" width="115" height="40" as="geometry">
            <mxRectangle width="115" height="40" as="alternateBounds" />
          </mxGeometry>
        </mxCell>
        <mxCell id="E9WGetEpHzfS7NlFxXSG-22" value="" style="shape=partialRectangle;html=1;whiteSpace=wrap;connectable=0;overflow=hidden;fillColor=none;top=0;left=0;bottom=0;right=0;pointerEvents=1;" vertex="1" visible="0" parent="E9WGetEpHzfS7NlFxXSG-18">
          <mxGeometry x="345" width="116" height="40" as="geometry">
            <mxRectangle width="116" height="40" as="alternateBounds" />
          </mxGeometry>
        </mxCell>
        <mxCell id="E9WGetEpHzfS7NlFxXSG-44" style="shape=partialRectangle;html=1;whiteSpace=wrap;connectable=0;overflow=hidden;fillColor=none;top=0;left=0;bottom=0;right=0;pointerEvents=1;" vertex="1" visible="0" parent="E9WGetEpHzfS7NlFxXSG-18">
          <mxGeometry x="461" width="114" height="40" as="geometry">
            <mxRectangle width="114" height="40" as="alternateBounds" />
          </mxGeometry>
        </mxCell>
        <mxCell id="E9WGetEpHzfS7NlFxXSG-49" style="shape=partialRectangle;html=1;whiteSpace=wrap;connectable=0;overflow=hidden;fillColor=none;top=0;left=0;bottom=0;right=0;pointerEvents=1;" vertex="1" visible="0" parent="E9WGetEpHzfS7NlFxXSG-18">
          <mxGeometry x="575" width="115" height="40" as="geometry">
            <mxRectangle width="115" height="40" as="alternateBounds" />
          </mxGeometry>
        </mxCell>
        <mxCell id="E9WGetEpHzfS7NlFxXSG-23" value="" style="shape=tableRow;horizontal=0;startSize=0;swimlaneHead=0;swimlaneBody=0;top=0;left=0;bottom=0;right=0;collapsible=0;dropTarget=0;fillColor=none;points=[[0,0.5],[1,0.5]];portConstraint=eastwest;fontFamily=微軟正黑體;fontSize=16;" vertex="1" parent="E9WGetEpHzfS7NlFxXSG-17">
          <mxGeometry y="40" width="690" height="40" as="geometry" />
        </mxCell>
        <mxCell id="E9WGetEpHzfS7NlFxXSG-24" value="員工ID" style="shape=partialRectangle;html=1;whiteSpace=wrap;connectable=0;overflow=hidden;top=0;left=0;bottom=0;right=0;pointerEvents=1;align=left;spacingLeft=8;fillColor=#666666;strokeColor=none;fontColor=#FFFFFF;fontFamily=微軟正黑體;fontSize=16;" vertex="1" parent="E9WGetEpHzfS7NlFxXSG-23">
          <mxGeometry width="115" height="40" as="geometry">
            <mxRectangle width="115" height="40" as="alternateBounds" />
          </mxGeometry>
        </mxCell>
        <mxCell id="E9WGetEpHzfS7NlFxXSG-25" value="名字" style="shape=partialRectangle;html=1;whiteSpace=wrap;connectable=0;overflow=hidden;top=0;left=0;bottom=0;right=0;pointerEvents=1;align=left;spacingLeft=8;fillColor=#666666;strokeColor=none;fontColor=#FFFFFF;fontFamily=微軟正黑體;fontSize=16;" vertex="1" parent="E9WGetEpHzfS7NlFxXSG-23">
          <mxGeometry x="115" width="115" height="40" as="geometry">
            <mxRectangle width="115" height="40" as="alternateBounds" />
          </mxGeometry>
        </mxCell>
        <mxCell id="E9WGetEpHzfS7NlFxXSG-26" value="薪水" style="shape=partialRectangle;html=1;whiteSpace=wrap;connectable=0;overflow=hidden;top=0;left=0;bottom=0;right=0;pointerEvents=1;align=left;spacingLeft=8;fillColor=#666666;strokeColor=none;fontColor=#FFFFFF;fontFamily=微軟正黑體;fontSize=16;" vertex="1" parent="E9WGetEpHzfS7NlFxXSG-23">
          <mxGeometry x="230" width="115" height="40" as="geometry">
            <mxRectangle width="115" height="40" as="alternateBounds" />
          </mxGeometry>
        </mxCell>
        <mxCell id="E9WGetEpHzfS7NlFxXSG-27" value="職等" style="shape=partialRectangle;html=1;whiteSpace=wrap;connectable=0;overflow=hidden;top=0;left=0;bottom=0;right=0;pointerEvents=1;align=left;spacingLeft=8;fillColor=#666666;strokeColor=none;fontColor=#FFFFFF;fontFamily=微軟正黑體;fontSize=16;" vertex="1" parent="E9WGetEpHzfS7NlFxXSG-23">
          <mxGeometry x="345" width="116" height="40" as="geometry">
            <mxRectangle width="116" height="40" as="alternateBounds" />
          </mxGeometry>
        </mxCell>
        <mxCell id="E9WGetEpHzfS7NlFxXSG-45" value="負責專案ID" style="shape=partialRectangle;html=1;whiteSpace=wrap;connectable=0;overflow=hidden;top=0;left=0;bottom=0;right=0;pointerEvents=1;align=left;spacingLeft=8;fillColor=#666666;strokeColor=none;fontColor=#FFFFFF;fontFamily=微軟正黑體;fontSize=16;" vertex="1" parent="E9WGetEpHzfS7NlFxXSG-23">
          <mxGeometry x="461" width="114" height="40" as="geometry">
            <mxRectangle width="114" height="40" as="alternateBounds" />
          </mxGeometry>
        </mxCell>
        <mxCell id="E9WGetEpHzfS7NlFxXSG-50" value="負責專案名稱" style="shape=partialRectangle;html=1;whiteSpace=wrap;connectable=0;overflow=hidden;top=0;left=0;bottom=0;right=0;pointerEvents=1;align=left;spacingLeft=8;fillColor=#666666;strokeColor=none;fontColor=#FFFFFF;fontFamily=微軟正黑體;fontSize=16;" vertex="1" parent="E9WGetEpHzfS7NlFxXSG-23">
          <mxGeometry x="575" width="115" height="40" as="geometry">
            <mxRectangle width="115" height="40" as="alternateBounds" />
          </mxGeometry>
        </mxCell>
        <mxCell id="E9WGetEpHzfS7NlFxXSG-28" value="" style="shape=tableRow;horizontal=0;startSize=0;swimlaneHead=0;swimlaneBody=0;top=0;left=0;bottom=0;right=0;collapsible=0;dropTarget=0;fillColor=none;points=[[0,0.5],[1,0.5]];portConstraint=eastwest;fontFamily=微軟正黑體;fontSize=16;" vertex="1" parent="E9WGetEpHzfS7NlFxXSG-17">
          <mxGeometry y="80" width="690" height="40" as="geometry" />
        </mxCell>
        <mxCell id="E9WGetEpHzfS7NlFxXSG-29" value="&lt;div style=&quot;font-size: 16px;&quot;&gt;1&lt;/div&gt;" style="shape=partialRectangle;html=1;whiteSpace=wrap;connectable=0;overflow=hidden;fillColor=none;top=0;left=0;bottom=0;right=0;pointerEvents=1;align=left;spacingLeft=8;fontFamily=微軟正黑體;fontSize=16;" vertex="1" parent="E9WGetEpHzfS7NlFxXSG-28">
          <mxGeometry width="115" height="40" as="geometry">
            <mxRectangle width="115" height="40" as="alternateBounds" />
          </mxGeometry>
        </mxCell>
        <mxCell id="E9WGetEpHzfS7NlFxXSG-30" value="Alice" style="shape=partialRectangle;html=1;whiteSpace=wrap;connectable=0;overflow=hidden;fillColor=none;top=0;left=0;bottom=0;right=0;pointerEvents=1;align=left;spacingLeft=8;fontFamily=微軟正黑體;fontSize=16;" vertex="1" parent="E9WGetEpHzfS7NlFxXSG-28">
          <mxGeometry x="115" width="115" height="40" as="geometry">
            <mxRectangle width="115" height="40" as="alternateBounds" />
          </mxGeometry>
        </mxCell>
        <mxCell id="E9WGetEpHzfS7NlFxXSG-31" value="50000" style="shape=partialRectangle;html=1;whiteSpace=wrap;connectable=0;overflow=hidden;fillColor=none;top=0;left=0;bottom=0;right=0;pointerEvents=1;align=left;spacingLeft=8;fontFamily=微軟正黑體;fontSize=16;" vertex="1" parent="E9WGetEpHzfS7NlFxXSG-28">
          <mxGeometry x="230" width="115" height="40" as="geometry">
            <mxRectangle width="115" height="40" as="alternateBounds" />
          </mxGeometry>
        </mxCell>
        <mxCell id="E9WGetEpHzfS7NlFxXSG-32" value="甲級業務員" style="shape=partialRectangle;html=1;whiteSpace=wrap;connectable=0;overflow=hidden;fillColor=none;top=0;left=0;bottom=0;right=0;pointerEvents=1;align=left;spacingLeft=8;fontFamily=微軟正黑體;fontSize=16;" vertex="1" parent="E9WGetEpHzfS7NlFxXSG-28">
          <mxGeometry x="345" width="116" height="40" as="geometry">
            <mxRectangle width="116" height="40" as="alternateBounds" />
          </mxGeometry>
        </mxCell>
        <mxCell id="E9WGetEpHzfS7NlFxXSG-46" value="P1" style="shape=partialRectangle;html=1;whiteSpace=wrap;connectable=0;overflow=hidden;fillColor=none;top=0;left=0;bottom=0;right=0;pointerEvents=1;align=left;spacingLeft=8;fontFamily=微軟正黑體;fontSize=16;" vertex="1" parent="E9WGetEpHzfS7NlFxXSG-28">
          <mxGeometry x="461" width="114" height="40" as="geometry">
            <mxRectangle width="114" height="40" as="alternateBounds" />
          </mxGeometry>
        </mxCell>
        <mxCell id="E9WGetEpHzfS7NlFxXSG-51" value="亞洲漫遊優惠" style="shape=partialRectangle;html=1;whiteSpace=wrap;connectable=0;overflow=hidden;fillColor=none;top=0;left=0;bottom=0;right=0;pointerEvents=1;align=left;spacingLeft=8;fontFamily=微軟正黑體;fontSize=16;" vertex="1" parent="E9WGetEpHzfS7NlFxXSG-28">
          <mxGeometry x="575" width="115" height="40" as="geometry">
            <mxRectangle width="115" height="40" as="alternateBounds" />
          </mxGeometry>
        </mxCell>
        <mxCell id="E9WGetEpHzfS7NlFxXSG-33" value="" style="shape=tableRow;horizontal=0;startSize=0;swimlaneHead=0;swimlaneBody=0;top=0;left=0;bottom=0;right=0;collapsible=0;dropTarget=0;fillColor=none;points=[[0,0.5],[1,0.5]];portConstraint=eastwest;fontFamily=微軟正黑體;fontSize=16;" vertex="1" parent="E9WGetEpHzfS7NlFxXSG-17">
          <mxGeometry y="120" width="690" height="40" as="geometry" />
        </mxCell>
        <mxCell id="E9WGetEpHzfS7NlFxXSG-34" value="2" style="shape=partialRectangle;html=1;whiteSpace=wrap;connectable=0;overflow=hidden;fillColor=none;top=0;left=0;bottom=0;right=0;pointerEvents=1;align=left;spacingLeft=8;fontFamily=微軟正黑體;fontSize=16;" vertex="1" parent="E9WGetEpHzfS7NlFxXSG-33">
          <mxGeometry width="115" height="40" as="geometry">
            <mxRectangle width="115" height="40" as="alternateBounds" />
          </mxGeometry>
        </mxCell>
        <mxCell id="E9WGetEpHzfS7NlFxXSG-35" value="Bob" style="shape=partialRectangle;html=1;whiteSpace=wrap;connectable=0;overflow=hidden;fillColor=none;top=0;left=0;bottom=0;right=0;pointerEvents=1;align=left;spacingLeft=8;fontFamily=微軟正黑體;fontSize=16;" vertex="1" parent="E9WGetEpHzfS7NlFxXSG-33">
          <mxGeometry x="115" width="115" height="40" as="geometry">
            <mxRectangle width="115" height="40" as="alternateBounds" />
          </mxGeometry>
        </mxCell>
        <mxCell id="E9WGetEpHzfS7NlFxXSG-36" value="40000" style="shape=partialRectangle;html=1;whiteSpace=wrap;connectable=0;overflow=hidden;fillColor=none;top=0;left=0;bottom=0;right=0;pointerEvents=1;align=left;spacingLeft=8;fontFamily=微軟正黑體;fontSize=16;" vertex="1" parent="E9WGetEpHzfS7NlFxXSG-33">
          <mxGeometry x="230" width="115" height="40" as="geometry">
            <mxRectangle width="115" height="40" as="alternateBounds" />
          </mxGeometry>
        </mxCell>
        <mxCell id="E9WGetEpHzfS7NlFxXSG-37" value="乙級業務員" style="shape=partialRectangle;html=1;whiteSpace=wrap;connectable=0;overflow=hidden;fillColor=none;top=0;left=0;bottom=0;right=0;pointerEvents=1;align=left;spacingLeft=8;fontFamily=微軟正黑體;fontSize=16;" vertex="1" parent="E9WGetEpHzfS7NlFxXSG-33">
          <mxGeometry x="345" width="116" height="40" as="geometry">
            <mxRectangle width="116" height="40" as="alternateBounds" />
          </mxGeometry>
        </mxCell>
        <mxCell id="E9WGetEpHzfS7NlFxXSG-47" value="P1" style="shape=partialRectangle;html=1;whiteSpace=wrap;connectable=0;overflow=hidden;fillColor=none;top=0;left=0;bottom=0;right=0;pointerEvents=1;align=left;spacingLeft=8;fontFamily=微軟正黑體;fontSize=16;" vertex="1" parent="E9WGetEpHzfS7NlFxXSG-33">
          <mxGeometry x="461" width="114" height="40" as="geometry">
            <mxRectangle width="114" height="40" as="alternateBounds" />
          </mxGeometry>
        </mxCell>
        <mxCell id="E9WGetEpHzfS7NlFxXSG-52" value="亞洲漫遊優惠" style="shape=partialRectangle;html=1;whiteSpace=wrap;connectable=0;overflow=hidden;fillColor=none;top=0;left=0;bottom=0;right=0;pointerEvents=1;align=left;spacingLeft=8;fontFamily=微軟正黑體;fontSize=16;" vertex="1" parent="E9WGetEpHzfS7NlFxXSG-33">
          <mxGeometry x="575" width="115" height="40" as="geometry">
            <mxRectangle width="115" height="40" as="alternateBounds" />
          </mxGeometry>
        </mxCell>
        <mxCell id="E9WGetEpHzfS7NlFxXSG-38" value="" style="shape=tableRow;horizontal=0;startSize=0;swimlaneHead=0;swimlaneBody=0;top=0;left=0;bottom=0;right=0;collapsible=0;dropTarget=0;fillColor=none;points=[[0,0.5],[1,0.5]];portConstraint=eastwest;fontFamily=微軟正黑體;fontSize=16;" vertex="1" parent="E9WGetEpHzfS7NlFxXSG-17">
          <mxGeometry y="160" width="690" height="40" as="geometry" />
        </mxCell>
        <mxCell id="E9WGetEpHzfS7NlFxXSG-39" value="2" style="shape=partialRectangle;html=1;whiteSpace=wrap;connectable=0;overflow=hidden;fillColor=none;top=0;left=0;bottom=0;right=0;pointerEvents=1;align=left;spacingLeft=8;fontFamily=微軟正黑體;fontSize=16;" vertex="1" parent="E9WGetEpHzfS7NlFxXSG-38">
          <mxGeometry width="115" height="40" as="geometry">
            <mxRectangle width="115" height="40" as="alternateBounds" />
          </mxGeometry>
        </mxCell>
        <mxCell id="E9WGetEpHzfS7NlFxXSG-40" value="Bob" style="shape=partialRectangle;html=1;whiteSpace=wrap;connectable=0;overflow=hidden;fillColor=none;top=0;left=0;bottom=0;right=0;pointerEvents=1;align=left;spacingLeft=8;fontFamily=微軟正黑體;fontSize=16;" vertex="1" parent="E9WGetEpHzfS7NlFxXSG-38">
          <mxGeometry x="115" width="115" height="40" as="geometry">
            <mxRectangle width="115" height="40" as="alternateBounds" />
          </mxGeometry>
        </mxCell>
        <mxCell id="E9WGetEpHzfS7NlFxXSG-41" value="40000" style="shape=partialRectangle;html=1;whiteSpace=wrap;connectable=0;overflow=hidden;fillColor=none;top=0;left=0;bottom=0;right=0;pointerEvents=1;align=left;spacingLeft=8;fontFamily=微軟正黑體;fontSize=16;" vertex="1" parent="E9WGetEpHzfS7NlFxXSG-38">
          <mxGeometry x="230" width="115" height="40" as="geometry">
            <mxRectangle width="115" height="40" as="alternateBounds" />
          </mxGeometry>
        </mxCell>
        <mxCell id="E9WGetEpHzfS7NlFxXSG-42" value="乙級業務員" style="shape=partialRectangle;html=1;whiteSpace=wrap;connectable=0;overflow=hidden;fillColor=none;top=0;left=0;bottom=0;right=0;pointerEvents=1;align=left;spacingLeft=8;fontFamily=微軟正黑體;fontSize=16;" vertex="1" parent="E9WGetEpHzfS7NlFxXSG-38">
          <mxGeometry x="345" width="116" height="40" as="geometry">
            <mxRectangle width="116" height="40" as="alternateBounds" />
          </mxGeometry>
        </mxCell>
        <mxCell id="E9WGetEpHzfS7NlFxXSG-48" value="P2" style="shape=partialRectangle;html=1;whiteSpace=wrap;connectable=0;overflow=hidden;fillColor=none;top=0;left=0;bottom=0;right=0;pointerEvents=1;align=left;spacingLeft=8;fontFamily=微軟正黑體;fontSize=16;" vertex="1" parent="E9WGetEpHzfS7NlFxXSG-38">
          <mxGeometry x="461" width="114" height="40" as="geometry">
            <mxRectangle width="114" height="40" as="alternateBounds" />
          </mxGeometry>
        </mxCell>
        <mxCell id="E9WGetEpHzfS7NlFxXSG-53" value="家庭數位電視" style="shape=partialRectangle;html=1;whiteSpace=wrap;connectable=0;overflow=hidden;fillColor=none;top=0;left=0;bottom=0;right=0;pointerEvents=1;align=left;spacingLeft=8;fontFamily=微軟正黑體;fontSize=16;" vertex="1" parent="E9WGetEpHzfS7NlFxXSG-38">
          <mxGeometry x="575" width="115" height="40" as="geometry">
            <mxRectangle width="115" height="40" as="alternateBounds" />
          </mxGeometry>
        </mxCell>
        <mxCell id="E9WGetEpHzfS7NlFxXSG-68" style="shape=tableRow;horizontal=0;startSize=0;swimlaneHead=0;swimlaneBody=0;top=0;left=0;bottom=0;right=0;collapsible=0;dropTarget=0;fillColor=none;points=[[0,0.5],[1,0.5]];portConstraint=eastwest;fontFamily=微軟正黑體;fontSize=16;" vertex="1" parent="E9WGetEpHzfS7NlFxXSG-17">
          <mxGeometry y="200" width="690" height="40" as="geometry" />
        </mxCell>
        <mxCell id="E9WGetEpHzfS7NlFxXSG-69" value="3" style="shape=partialRectangle;html=1;whiteSpace=wrap;connectable=0;overflow=hidden;fillColor=none;top=0;left=0;bottom=0;right=0;pointerEvents=1;align=left;spacingLeft=8;fontFamily=微軟正黑體;fontSize=16;" vertex="1" parent="E9WGetEpHzfS7NlFxXSG-68">
          <mxGeometry width="115" height="40" as="geometry">
            <mxRectangle width="115" height="40" as="alternateBounds" />
          </mxGeometry>
        </mxCell>
        <mxCell id="E9WGetEpHzfS7NlFxXSG-70" value="Calvin" style="shape=partialRectangle;html=1;whiteSpace=wrap;connectable=0;overflow=hidden;fillColor=none;top=0;left=0;bottom=0;right=0;pointerEvents=1;align=left;spacingLeft=8;fontFamily=微軟正黑體;fontSize=16;" vertex="1" parent="E9WGetEpHzfS7NlFxXSG-68">
          <mxGeometry x="115" width="115" height="40" as="geometry">
            <mxRectangle width="115" height="40" as="alternateBounds" />
          </mxGeometry>
        </mxCell>
        <mxCell id="E9WGetEpHzfS7NlFxXSG-71" value="40000" style="shape=partialRectangle;html=1;whiteSpace=wrap;connectable=0;overflow=hidden;fillColor=none;top=0;left=0;bottom=0;right=0;pointerEvents=1;align=left;spacingLeft=8;fontFamily=微軟正黑體;fontSize=16;" vertex="1" parent="E9WGetEpHzfS7NlFxXSG-68">
          <mxGeometry x="230" width="115" height="40" as="geometry">
            <mxRectangle width="115" height="40" as="alternateBounds" />
          </mxGeometry>
        </mxCell>
        <mxCell id="E9WGetEpHzfS7NlFxXSG-72" value="乙級業務員" style="shape=partialRectangle;html=1;whiteSpace=wrap;connectable=0;overflow=hidden;fillColor=none;top=0;left=0;bottom=0;right=0;pointerEvents=1;align=left;spacingLeft=8;fontFamily=微軟正黑體;fontSize=16;" vertex="1" parent="E9WGetEpHzfS7NlFxXSG-68">
          <mxGeometry x="345" width="116" height="40" as="geometry">
            <mxRectangle width="116" height="40" as="alternateBounds" />
          </mxGeometry>
        </mxCell>
        <mxCell id="E9WGetEpHzfS7NlFxXSG-73" value="P2" style="shape=partialRectangle;html=1;whiteSpace=wrap;connectable=0;overflow=hidden;fillColor=none;top=0;left=0;bottom=0;right=0;pointerEvents=1;align=left;spacingLeft=8;fontFamily=微軟正黑體;fontSize=16;" vertex="1" parent="E9WGetEpHzfS7NlFxXSG-68">
          <mxGeometry x="461" width="114" height="40" as="geometry">
            <mxRectangle width="114" height="40" as="alternateBounds" />
          </mxGeometry>
        </mxCell>
        <mxCell id="E9WGetEpHzfS7NlFxXSG-74" value="家庭數位電視" style="shape=partialRectangle;html=1;whiteSpace=wrap;connectable=0;overflow=hidden;fillColor=none;top=0;left=0;bottom=0;right=0;pointerEvents=1;align=left;spacingLeft=8;fontFamily=微軟正黑體;fontSize=16;" vertex="1" parent="E9WGetEpHzfS7NlFxXSG-68">
          <mxGeometry x="575" width="115" height="40" as="geometry">
            <mxRectangle width="115" height="40" as="alternateBounds" />
          </mxGeometry>
        </mxCell>
        <mxCell id="E9WGetEpHzfS7NlFxXSG-61" style="shape=tableRow;horizontal=0;startSize=0;swimlaneHead=0;swimlaneBody=0;top=0;left=0;bottom=0;right=0;collapsible=0;dropTarget=0;fillColor=none;points=[[0,0.5],[1,0.5]];portConstraint=eastwest;fontFamily=微軟正黑體;fontSize=16;" vertex="1" parent="E9WGetEpHzfS7NlFxXSG-17">
          <mxGeometry y="240" width="690" height="40" as="geometry" />
        </mxCell>
        <mxCell id="E9WGetEpHzfS7NlFxXSG-62" value="3" style="shape=partialRectangle;html=1;whiteSpace=wrap;connectable=0;overflow=hidden;fillColor=none;top=0;left=0;bottom=0;right=0;pointerEvents=1;align=left;spacingLeft=8;fontFamily=微軟正黑體;fontSize=16;" vertex="1" parent="E9WGetEpHzfS7NlFxXSG-61">
          <mxGeometry width="115" height="40" as="geometry">
            <mxRectangle width="115" height="40" as="alternateBounds" />
          </mxGeometry>
        </mxCell>
        <mxCell id="E9WGetEpHzfS7NlFxXSG-63" value="Calvin" style="shape=partialRectangle;html=1;whiteSpace=wrap;connectable=0;overflow=hidden;fillColor=none;top=0;left=0;bottom=0;right=0;pointerEvents=1;align=left;spacingLeft=8;fontFamily=微軟正黑體;fontSize=16;" vertex="1" parent="E9WGetEpHzfS7NlFxXSG-61">
          <mxGeometry x="115" width="115" height="40" as="geometry">
            <mxRectangle width="115" height="40" as="alternateBounds" />
          </mxGeometry>
        </mxCell>
        <mxCell id="E9WGetEpHzfS7NlFxXSG-64" value="40000" style="shape=partialRectangle;html=1;whiteSpace=wrap;connectable=0;overflow=hidden;fillColor=none;top=0;left=0;bottom=0;right=0;pointerEvents=1;align=left;spacingLeft=8;fontFamily=微軟正黑體;fontSize=16;" vertex="1" parent="E9WGetEpHzfS7NlFxXSG-61">
          <mxGeometry x="230" width="115" height="40" as="geometry">
            <mxRectangle width="115" height="40" as="alternateBounds" />
          </mxGeometry>
        </mxCell>
        <mxCell id="E9WGetEpHzfS7NlFxXSG-65" value="乙級業務員" style="shape=partialRectangle;html=1;whiteSpace=wrap;connectable=0;overflow=hidden;fillColor=none;top=0;left=0;bottom=0;right=0;pointerEvents=1;align=left;spacingLeft=8;fontFamily=微軟正黑體;fontSize=16;" vertex="1" parent="E9WGetEpHzfS7NlFxXSG-61">
          <mxGeometry x="345" width="116" height="40" as="geometry">
            <mxRectangle width="116" height="40" as="alternateBounds" />
          </mxGeometry>
        </mxCell>
        <mxCell id="E9WGetEpHzfS7NlFxXSG-66" value="P3" style="shape=partialRectangle;html=1;whiteSpace=wrap;connectable=0;overflow=hidden;fillColor=none;top=0;left=0;bottom=0;right=0;pointerEvents=1;align=left;spacingLeft=8;fontFamily=微軟正黑體;fontSize=16;" vertex="1" parent="E9WGetEpHzfS7NlFxXSG-61">
          <mxGeometry x="461" width="114" height="40" as="geometry">
            <mxRectangle width="114" height="40" as="alternateBounds" />
          </mxGeometry>
        </mxCell>
        <mxCell id="E9WGetEpHzfS7NlFxXSG-67" value="上網吃到飽" style="shape=partialRectangle;html=1;whiteSpace=wrap;connectable=0;overflow=hidden;fillColor=none;top=0;left=0;bottom=0;right=0;pointerEvents=1;align=left;spacingLeft=8;fontFamily=微軟正黑體;fontSize=16;" vertex="1" parent="E9WGetEpHzfS7NlFxXSG-61">
          <mxGeometry x="575" width="115" height="40" as="geometry">
            <mxRectangle width="115" height="40" as="alternateBounds" />
          </mxGeometry>
        </mxCell>
        <mxCell id="E9WGetEpHzfS7NlFxXSG-54" style="shape=tableRow;horizontal=0;startSize=0;swimlaneHead=0;swimlaneBody=0;top=0;left=0;bottom=0;right=0;collapsible=0;dropTarget=0;fillColor=none;points=[[0,0.5],[1,0.5]];portConstraint=eastwest;fontFamily=微軟正黑體;fontSize=16;" vertex="1" parent="E9WGetEpHzfS7NlFxXSG-17">
          <mxGeometry y="280" width="690" height="40" as="geometry" />
        </mxCell>
        <mxCell id="E9WGetEpHzfS7NlFxXSG-55" value="4" style="shape=partialRectangle;html=1;whiteSpace=wrap;connectable=0;overflow=hidden;fillColor=none;top=0;left=0;bottom=0;right=0;pointerEvents=1;align=left;spacingLeft=8;fontFamily=微軟正黑體;fontSize=16;" vertex="1" parent="E9WGetEpHzfS7NlFxXSG-54">
          <mxGeometry width="115" height="40" as="geometry">
            <mxRectangle width="115" height="40" as="alternateBounds" />
          </mxGeometry>
        </mxCell>
        <mxCell id="E9WGetEpHzfS7NlFxXSG-56" value="David" style="shape=partialRectangle;html=1;whiteSpace=wrap;connectable=0;overflow=hidden;fillColor=none;top=0;left=0;bottom=0;right=0;pointerEvents=1;align=left;spacingLeft=8;fontFamily=微軟正黑體;fontSize=16;" vertex="1" parent="E9WGetEpHzfS7NlFxXSG-54">
          <mxGeometry x="115" width="115" height="40" as="geometry">
            <mxRectangle width="115" height="40" as="alternateBounds" />
          </mxGeometry>
        </mxCell>
        <mxCell id="E9WGetEpHzfS7NlFxXSG-57" value="30000" style="shape=partialRectangle;html=1;whiteSpace=wrap;connectable=0;overflow=hidden;fillColor=none;top=0;left=0;bottom=0;right=0;pointerEvents=1;align=left;spacingLeft=8;fontFamily=微軟正黑體;fontSize=16;" vertex="1" parent="E9WGetEpHzfS7NlFxXSG-54">
          <mxGeometry x="230" width="115" height="40" as="geometry">
            <mxRectangle width="115" height="40" as="alternateBounds" />
          </mxGeometry>
        </mxCell>
        <mxCell id="E9WGetEpHzfS7NlFxXSG-58" value="丙級業務員" style="shape=partialRectangle;html=1;whiteSpace=wrap;connectable=0;overflow=hidden;fillColor=none;top=0;left=0;bottom=0;right=0;pointerEvents=1;align=left;spacingLeft=8;fontFamily=微軟正黑體;fontSize=16;" vertex="1" parent="E9WGetEpHzfS7NlFxXSG-54">
          <mxGeometry x="345" width="116" height="40" as="geometry">
            <mxRectangle width="116" height="40" as="alternateBounds" />
          </mxGeometry>
        </mxCell>
        <mxCell id="E9WGetEpHzfS7NlFxXSG-59" value="P3" style="shape=partialRectangle;html=1;whiteSpace=wrap;connectable=0;overflow=hidden;fillColor=none;top=0;left=0;bottom=0;right=0;pointerEvents=1;align=left;spacingLeft=8;fontFamily=微軟正黑體;fontSize=16;" vertex="1" parent="E9WGetEpHzfS7NlFxXSG-54">
          <mxGeometry x="461" width="114" height="40" as="geometry">
            <mxRectangle width="114" height="40" as="alternateBounds" />
          </mxGeometry>
        </mxCell>
        <mxCell id="E9WGetEpHzfS7NlFxXSG-60" value="上網吃到飽" style="shape=partialRectangle;html=1;whiteSpace=wrap;connectable=0;overflow=hidden;fillColor=none;top=0;left=0;bottom=0;right=0;pointerEvents=1;align=left;spacingLeft=8;fontFamily=微軟正黑體;fontSize=16;" vertex="1" parent="E9WGetEpHzfS7NlFxXSG-54">
          <mxGeometry x="575" width="115" height="40" as="geometry">
            <mxRectangle width="115" height="40" as="alternateBounds" />
          </mxGeometry>
        </mxCell>
      </root>
    </mxGraphModel>
  </diagram>
</mxfile>
